<svg width="287" height="200" viewBox="0 0 287 200" fill="none" xmlns="http://www.w3.org/2000/svg">
<path fill-rule="evenodd" clip-rule="evenodd" d="M0 183.548V0H234.771C246.493 34.1723 244.632 72.9874 223.954 107.324C199.936 147.206 179.594 147.713 157.044 148.275C135.359 148.814 111.633 149.405 80.6354 185.109C62.113 206.443 31.8345 201.841 0 183.548Z" fill="#369675"/>
<path d="M40.3256 70.5941L40.6393 67.9825C40.6551 67.289 40.5821 66.7724 40.4202 66.4327C40.3027 66.0783 40.2072 65.7904 40.1338 65.569C40.0603 65.3475 39.95 65.0891 39.8029 64.7937C39.641 64.4541 39.3758 64.1733 39.0072 63.9514C38.6682 63.6705 38.3511 63.5298 38.056 63.5294C37.7904 63.47 37.2814 63.4176 36.5288 63.3722L35.0451 63.7906C33.6281 63.9656 32.5354 64.451 31.7668 65.2467C32.0901 66.2212 32.5223 68.3395 33.0635 71.6017L34.1855 76.3183L34.6466 78.8203C34.9567 78.7175 35.6732 78.2094 36.7961 77.2961L37.4618 76.1903C37.6243 76.0872 38.0163 75.4164 38.638 74.1777C38.83 74.0156 39.0002 73.7133 39.1484 73.2708L39.5484 72.2532C39.6959 72.2534 39.8661 71.9511 40.0588 71.3463L40.3256 70.5941ZM38.5026 90.8901L39.1644 92.4406C39.4738 92.7805 39.6648 93.3563 39.7374 94.1681C39.81 94.9798 39.9789 95.563 40.244 95.9175C40.4937 96.6705 40.6628 97.1061 40.7512 97.2243C41.1498 97.0921 41.689 96.7166 42.3688 96.0978C43.0928 95.4643 43.5582 95.0886 43.765 94.9709C43.9718 94.8531 44.2009 94.5805 44.4524 94.1529C45.3687 93.2098 46.3 92.1634 47.2462 91.0137L48.3115 89.1116C49.0818 87.1352 49.593 85.7119 49.8452 84.8416L49.8471 83.5134C50.0116 82.0822 49.0686 81.0921 47.0181 80.543C46.4875 80.129 45.6391 80.0171 44.473 80.2072L44.4065 80.2293C42.7093 80.3006 41.7425 80.4246 41.5062 80.6013L38.8032 82.2354C38.3598 82.6775 37.9166 82.972 37.4737 83.1189C37.0751 83.2511 36.566 83.1987 35.9466 82.9617L36.6301 84.8C36.5992 85.7444 36.7824 86.5932 37.1797 87.3464C37.6213 88.0849 38.0623 89.2662 38.5026 90.8901ZM45.3488 101.747L44.7508 101.945C44.3373 102.181 43.4515 102.401 42.0935 102.605C39.717 103 37.6659 102.894 35.9402 102.286C35.424 102.064 34.8047 101.753 34.0822 101.354C33.3892 100.895 33.0061 100.555 32.9326 100.334C32.8591 100.112 32.7636 99.8246 32.6461 99.4702C32.5729 99.1012 32.4332 98.7542 32.227 98.4292L32.0507 97.8977C31.8297 97.676 31.6976 97.2036 31.6544 96.4804C31.5965 95.713 31.4498 95.1224 31.2143 94.7089C30.9347 94.1625 30.6626 93.5644 30.3979 92.9147C30.2062 92.7816 30.1111 92.2723 30.1124 91.3869C28.4833 85.2897 27.5733 81.9532 27.3823 81.3774L27.0533 79.274C26.3911 78.0186 26.0534 76.8523 26.0402 75.775L25.5554 74.3133C25.3054 73.7079 24.8876 71.8552 24.3018 68.7553C23.9484 68.2826 23.1227 67.7944 21.8248 67.2907C21.5298 67.1427 21.1982 66.884 20.8298 66.5145C20.4467 66.1007 20.2855 65.3184 20.3463 64.1674C20.4945 63.7249 21.0786 62.8919 22.0987 61.6686C22.0991 61.3734 23.1261 60.4674 25.1796 58.9504L26.2657 58.0002C26.8123 57.573 28.0231 57.073 29.8982 56.5003C30.961 56.2952 31.8465 56.2228 32.5548 56.2828C35.1811 56.6409 37.6816 57.2127 40.0564 57.9984C40.7203 58.0731 41.2365 58.2952 41.6049 58.6647C42.5785 58.9318 43.5958 59.5531 44.6569 60.5286C45.7476 61.4452 46.3887 62.0438 46.5801 62.3245C47.2717 63.6684 47.6159 65.4472 47.6126 67.6608C47.6405 68.7824 46.884 71.3933 45.3432 75.4936C45.8302 75.4795 46.7081 75.6063 47.9768 75.8738C48.1685 76.0069 48.7364 76.1626 49.6806 76.3411C49.8133 76.4446 49.9754 76.5629 50.1671 76.696C50.403 76.8144 50.5873 76.9254 50.72 77.0289L51.3617 77.1848L52.3567 77.961L53.6398 78.4941C54.2296 78.7902 54.7456 79.1599 55.1877 79.6032C56.0578 80.003 56.5811 80.3948 56.7576 80.7787L57.3092 81.997C57.4265 82.499 57.291 84.3139 56.9027 87.4419C56.7387 88.578 56.3684 89.5366 55.7917 90.3179L55.1918 91.8444C55.0435 92.2869 54.6811 92.8988 54.1044 93.6801C53.572 94.4467 53.143 95.1544 52.8174 95.8033C52.6253 95.9653 52.3371 96.2822 51.9527 96.7538C51.6126 97.2108 51.0509 97.815 50.2677 98.5665C49.5287 99.3033 49.0189 99.7674 48.7382 99.9588C47.9405 100.518 46.8107 101.114 45.3488 101.747ZM55.0601 49.9979C58.0278 49.0135 60.3079 48.921 61.9005 49.7202C62.1503 50.4732 62.1478 52.1703 61.893 54.8115C61.9656 55.6232 61.876 56.3167 61.6243 56.8919L61.0471 58.0421C60.8697 58.2484 60.6703 58.3883 60.4488 58.4618C58.9865 59.3893 57.6434 59.4907 56.4196 58.7658C56.1543 58.5588 55.8667 58.4329 55.5569 58.3882C55.2913 58.3288 54.9819 57.9889 54.6286 57.3686C54.039 56.925 53.6928 56.5481 53.5899 56.2381C52.5904 53.5213 53.014 51.4632 54.8608 50.064L55.0601 49.9979ZM59.7295 65.8541C60.099 65.4858 61.2134 65.362 63.0726 65.4828C63.3086 65.6012 63.6331 65.6902 64.0462 65.7498L65.3958 66.2609C65.6317 66.3794 65.8158 66.6379 65.948 67.0365L67.8874 72.8833C68.1812 73.7691 68.4014 74.5811 68.5478 75.3192L68.6801 75.7178C69.1496 77.578 70.6193 81.6384 73.0893 87.8991C73.6336 89.0953 73.5954 89.9438 72.9749 90.4446C72.2219 90.6944 71.6979 90.7452 71.403 90.5972C71.1964 90.5674 71.0267 90.5745 70.8938 90.6186L70.4288 90.7729L70.0742 91.038C69.9413 91.0821 69.6683 91.0743 69.2552 91.0147C68.8274 90.9107 68.5103 90.7701 68.304 90.5927C68.1419 90.4006 67.9207 90.3265 67.6402 90.3703C67.0942 90.3548 66.7183 90.1107 66.5124 89.6382C65.4956 88.6479 64.9283 88.0494 64.8105 87.8427C64.7371 87.6212 64.5898 87.3996 64.3688 87.1779L62.1193 81.5078C61.8989 80.8434 61.7742 80.3193 61.7453 79.9356L61.2164 78.341C61.0991 77.8391 60.8495 76.9385 60.4677 75.6393C60.0713 74.2958 59.7851 73.2108 59.6092 72.3841C59.1387 71.2618 58.8373 70.5014 58.705 70.1027C58.5728 69.7041 58.4994 69.4088 58.485 69.217C57.8361 68.8914 57.6379 68.2196 57.8903 67.2017C58.3192 66.5678 58.7994 66.1627 59.3309 65.9864L59.7295 65.8541ZM74.2405 68.121C74.1083 67.7223 73.9097 67.2719 73.6448 66.7698L73.4905 66.3047C73.432 65.98 73.2996 65.6551 73.0935 65.3301C72.9466 64.8872 72.8587 64.4739 72.8297 64.0901C72.5359 63.2043 72.4556 62.5917 72.5889 62.2525C72.5155 62.031 72.6566 61.4188 73.0122 60.4158C73.1306 60.1799 73.3673 59.7818 73.7223 59.2215C74.3576 58.765 74.8007 58.4705 75.0518 58.3381C75.1702 58.1021 75.7902 57.9702 76.9118 57.9423C77.3694 57.8397 78.1074 57.767 79.1257 57.7242C79.4652 57.71 79.9813 57.9321 80.6743 58.3906C80.6444 58.5972 80.7098 59.313 80.8703 60.5381C81.0604 61.7042 81.2952 62.6343 81.5746 63.3283C81.7669 63.0186 82.0777 62.3993 82.507 61.4702C82.9363 60.5411 83.1658 60.0471 83.1954 59.9881C84.1707 59.0746 85.1753 58.3235 86.2092 57.7347C87.7597 57.0729 88.8373 56.8384 89.4421 57.0311C89.8848 57.0318 90.261 57.1282 90.5706 57.3205C91.0868 57.5427 91.6247 58.0526 92.1843 58.8503C92.7292 59.6037 92.8833 60.1426 92.6468 60.4669C92.4545 60.7765 91.6273 61.2475 90.1654 61.8799C90.0769 61.9093 89.8256 62.1894 89.4116 62.72L86.8602 66.59C86.2691 67.1795 85.8847 67.6511 85.7071 68.005L85.216 70.7492C85.2011 70.8525 85.3478 71.443 85.6562 72.5207C85.9645 73.5984 86.2216 74.3736 86.4275 74.8461C86.6187 75.2744 87.1109 76.7582 87.904 79.2976L88.8517 82.1546C89.3659 83.7048 89.6376 84.5981 89.6668 84.8342C89.7106 85.1147 89.6804 85.6164 89.576 86.3393C89.5166 86.6049 89.1325 86.8552 88.4238 87.0903C87.1224 88.9478 85.9931 89.2486 85.0357 87.9928L83.9956 87.7478C83.5825 87.6882 83.2876 87.5402 83.1109 87.3038C82.5949 86.9341 82.3222 86.7049 82.2928 86.6164L81.7186 85.7743L81.0555 85.1093C80.9079 85.1091 80.518 84.3042 79.8858 82.6947C79.2389 81.041 78.8567 80.0369 78.7392 79.6826C78.6069 79.2839 78.4231 78.8778 78.1876 78.4643C78.3948 78.0514 78.3514 77.4758 78.0573 76.7375C77.8075 75.9845 77.5722 75.4234 77.3514 75.0541C77.1159 74.6405 77.0278 74.3748 77.087 74.2568C77.1315 74.0945 76.9037 73.4818 76.4035 72.4185C76.2118 72.2854 76.0795 71.9606 76.0065 71.444L74.2405 68.121ZM101.703 36.4441C101.982 37.5808 102.209 38.4149 102.386 38.9464C102.547 39.4337 102.672 39.8839 102.76 40.2973L103.333 42.0247L103.421 42.5118L103.884 43.9071C104.016 44.3057 104.126 44.7117 104.214 45.1251L106.385 43.8886C106.562 43.8299 107.168 43.5061 108.202 42.9173C109.236 42.3286 110.203 41.9094 111.103 41.6599C112.034 41.3513 112.712 41.3228 113.14 41.5743C113.612 41.8111 113.958 42.2617 114.178 42.9261C114.443 43.4283 114.457 43.9891 114.22 44.6085L114.087 45.0953C113.923 45.7887 113.539 46.3341 112.933 46.7317L110.718 47.8352L107.971 49.5578L106.397 50.8172C106.809 51.9099 107.279 53.1059 107.808 54.4053C108.382 55.6901 108.757 56.5982 108.933 57.1297L109.948 59.5219C111.817 63.2287 113.892 66.9654 116.174 70.7319C116.572 71.0424 117.161 71.8549 117.941 73.1694L118.936 74.3884C119.612 75.8356 118.932 76.8971 116.894 77.5729C116.54 77.6905 115.625 77.8957 114.149 78.1887C113.735 78.2766 113.027 78.069 112.024 77.5658C111.995 77.4772 111.656 77.2701 111.007 76.9445L108.731 74.3069C108.598 74.2034 108.348 73.8194 107.98 73.1547C107.331 72.8291 106.565 71.854 105.682 70.2294C105.653 70.1408 105.535 69.934 105.329 69.6091L105.02 68.6789C104.608 68.4717 104.1 67.6814 103.497 66.3081C102.894 64.9348 102.298 63.6574 101.709 62.476C101.136 60.7485 100.452 59.1316 99.6577 57.6252L99.0399 56.2075L98.8416 55.6096C98.739 55.152 98.6655 54.9305 98.6212 54.9452L97.8239 55.2096C97.1889 55.5186 96.6353 55.7023 96.1629 55.7606C94.214 56.407 92.6794 56.3015 91.5591 55.4439C90.6309 54.4243 90.3517 53.6565 90.7213 53.1405C91.091 52.6246 92.1694 51.8735 93.9565 50.8874C94.7981 50.6083 95.7878 49.9604 96.9256 48.9438C96.5583 47.8365 96.4191 47.1943 96.5079 47.0174C96.3028 45.9546 96.2227 45.2682 96.2674 44.9584C96.3417 44.5896 96.3496 44.2428 96.2911 43.918C95.9828 42.8403 95.8377 41.143 95.8559 38.8261C95.7837 37.7192 95.7996 36.9519 95.9035 36.524C96.2002 35.4915 97.308 34.829 99.2268 34.5367C100.024 34.4198 100.673 34.5241 101.174 34.8495C101.293 34.7611 101.469 35.2926 101.703 36.4441ZM146.767 61.3218L147.362 63.337C147.611 64.09 147.847 64.6512 148.067 65.0204C148.318 65.3307 148.495 65.6408 148.597 65.9509C148.832 66.6596 147.555 66.9602 144.767 66.8528C144.693 66.9265 144.464 66.9778 144.08 67.0068C143.711 67.08 143.445 67.0944 143.283 67.0499C143.165 66.9907 143.003 66.9462 142.796 66.9163C142.073 66.9595 141.638 66.6859 141.491 66.0954C141.374 65.8886 141.204 65.6744 140.983 65.4527C140.807 65.2163 140.637 64.8545 140.476 64.3673C140.358 63.8654 140.101 63.164 139.704 62.2632C139.292 61.3181 139.087 60.7718 139.087 60.6242C138.751 58.4249 138.546 56.9194 138.474 56.1076C138.153 53.6574 137.462 51.428 136.403 49.4195C135.387 47.3962 134.201 46.5607 132.842 46.9129C131.779 47.2655 131.055 48.2679 130.669 49.9202C130.192 53.0775 131.07 58.0225 133.303 64.7552C133.67 65.8625 134.156 66.8815 134.76 67.8121C135.363 68.7427 135.731 69.5549 135.863 70.2486C136.054 70.972 135.529 71.4656 134.289 71.7294C133.108 72.0228 132.296 72.0954 131.854 71.9472L130.924 71.813C130.393 71.9893 129.98 71.8559 129.685 71.4127C129.538 71.265 129.25 71.0653 128.823 70.8138L127.12 69.6824C126.692 69.4309 126.457 69.1649 126.413 68.8844L126.016 67.6885L125.795 67.2454C125.383 67.0382 125.051 66.4844 124.802 65.5838C124.596 64.6685 124.26 62.9119 123.791 60.3139C123.132 56.6974 122.502 53.9811 121.9 52.1651C121.297 50.4966 121.018 49.6551 121.062 49.6404L119.655 43.396L118.839 40.9377C117.899 38.1029 117.306 35.2022 117.059 32.2356C117.119 31.6749 117.171 31.3134 117.216 31.1512C117.29 30.9299 117.312 30.7012 117.283 30.4651C117.092 29.7417 117.145 29.085 117.441 28.4952L117.33 28.6057C117.316 28.2663 117.464 27.8975 117.774 27.4996C118.395 26.8512 119.598 26.5504 121.384 26.5973C121.767 26.7159 122.033 26.7754 122.18 26.7756C122.49 26.8203 122.778 26.7986 123.044 26.7104C124.017 26.9775 124.533 27.3472 124.592 27.8195C124.621 27.9081 124.679 28.6756 124.765 30.1219C124.912 31.1551 125.014 31.7603 125.073 31.9375C125.318 35.9371 126.005 40.2325 127.134 44.8237C127.519 44.0569 128.029 43.3714 128.665 42.7673C130.172 41.5299 131.442 40.7644 132.476 40.4708C135.738 39.6344 138.357 40.1917 140.331 42.1425C142.115 43.6652 143.439 46.2497 144.305 49.896C144.525 50.708 145.345 54.5166 146.767 61.3218Z" fill="#FFFEFA"/>
<path d="M88.9433 107.526C87.5713 107.244 85.2242 107.654 81.9022 108.756L83.6672 112.743C84.8149 115.017 86.6089 119.388 89.0491 125.855C89.4183 125.634 89.6474 125.435 89.7362 125.258C90.0024 124.875 90.3348 124.617 90.7334 124.485C91.2652 124.161 91.6866 123.579 91.9977 122.738C92.9593 121.19 93.6695 119.922 94.1284 118.934L95.4835 115.682C95.6017 115.594 95.6615 115.033 95.6631 114C95.6499 112.923 95.5848 112.059 95.4677 111.41C95.0416 110.125 94.6663 109.438 94.3418 109.349C94.3124 109.261 93.863 108.795 92.9935 107.953C92.7723 107.879 92.1306 107.723 91.0684 107.485L88.9433 107.526ZM72.6557 104.448L76.2001 102.682L80.8736 100.763L83.5085 100.258C83.7445 100.376 84.202 100.347 84.8811 100.171C86.1509 99.7008 88.1208 99.8587 90.7907 100.645C91.381 100.646 91.9268 100.809 92.428 101.134L95.9665 103.353C96.0845 103.412 96.2982 103.612 96.6076 103.952C96.9023 104.247 97.2855 104.587 97.7571 104.972C97.6686 105.001 97.7938 105.156 98.1328 105.437C99.0318 106.22 99.4886 106.708 99.503 106.9C99.7833 107.004 100.196 107.506 100.74 108.407C101.285 109.308 101.572 109.95 101.601 110.334C101.66 110.364 101.785 110.888 101.975 111.906C102.37 114.135 102.338 115.891 101.879 117.175L101.544 119.056L100.787 121.667L100.188 122.75C99.1811 125.051 97.6877 127.071 95.7076 128.809C95.6337 128.883 95.5156 128.971 95.3531 129.074L93.9348 130.134L91.564 131.658C91.9901 132.943 93.1295 135.859 94.9822 140.407C95.6883 141.943 96.115 142.785 96.2624 142.933C96.7472 144.394 96.9818 145.398 96.9663 145.944C96.9654 146.534 96.8024 147.006 96.4772 147.36C96.1667 147.758 95.5316 148.141 94.5718 148.508C94.3354 148.685 93.841 148.751 93.0884 148.705C92.3505 148.704 91.7015 148.526 91.1412 148.171L90.0374 146.177C90.0966 146.059 89.8241 145.683 89.22 145.047C88.7924 144.796 88.3431 144.256 87.8721 143.429L85.3134 137.272L84.5417 135.168C82.0315 136.197 80.2461 136.002 79.1857 134.584C78.4636 133.89 78.1914 133.365 78.369 133.011L78.4147 132.037C78.6671 131.02 79.5462 130.261 81.0522 129.761L82.4475 129.299C82.3295 129.239 82.1824 128.944 82.0061 128.412L80.8147 125.71L80.418 124.514L80.0651 123.672C79.9771 123.259 79.8081 122.824 79.5579 122.366L79.4257 121.967L78.7418 120.35L78.3231 119.088L78.0363 118.445C76.9931 115.301 76.1548 113.366 75.5213 112.642C74.3388 113.968 73.5186 114.757 73.0608 115.007C72.5882 115.213 71.6586 115.153 70.2719 114.826C69.6524 114.589 69.2397 114.234 69.0338 113.761C67.8693 112.919 67.3023 112.099 67.333 111.302C67.304 110.918 67.4747 110.247 67.8451 109.288C67.8306 109.096 68.2299 108.521 69.043 107.563C69.5758 106.502 70.7801 105.463 72.6557 104.448ZM124.235 95.0091C124.558 95.5408 124.58 95.9762 124.299 96.3152C124.003 96.6099 123.656 96.8234 123.258 96.9556C122.903 97.0731 121.944 97.4407 120.378 98.0582C119.433 98.6175 118.51 99.2434 117.609 99.9356L117.542 99.9577C117.807 100.755 117.974 102.002 118.046 103.699C118.222 104.231 118.398 105.131 118.573 106.401C118.691 106.755 118.742 107.131 118.726 107.53C118.711 107.928 118.828 108.504 119.078 109.257C119.37 111.176 119.568 112.217 119.671 112.379C119.774 112.542 119.855 112.785 119.913 113.11C119.972 113.435 120.038 113.929 120.11 114.593C120.183 115.258 120.359 116.01 120.638 116.852C120.918 117.694 121.057 118.483 121.056 119.221L121.298 119.952C121.915 121.517 122.224 122.669 122.223 123.407C122.266 124.13 122.368 124.735 122.53 125.222C122.677 125.665 122.801 126.411 122.903 127.458C123.005 128.506 123.32 129.68 123.849 130.979L124.248 130.847C125.326 130.391 125.895 130.178 125.954 130.208C126.042 130.178 126.33 130.009 126.818 129.7L127.903 129.414L128.567 129.193C128.7 129.149 129.047 129.231 129.607 129.438C130.153 129.602 130.566 129.809 130.846 130.06C131.259 130.267 131.45 130.548 131.42 130.902C131.42 131.197 131.087 131.824 130.421 132.782L129.291 133.6C129.202 133.776 128.944 134.034 128.515 134.373C128.087 134.712 127.695 134.94 127.341 135.058C126.396 135.617 125.923 136.192 125.922 136.782C125.862 137.195 124.843 137.681 122.865 138.239L120.606 138.988L119.476 139.805C118.515 140.616 117.578 141.049 116.662 141.107C115.747 141.165 115.113 141.179 114.759 141.149C114.464 141.148 114.058 141.037 113.542 140.815C113.04 140.637 112.738 140.319 112.636 139.862C112.592 139.434 112.549 138.784 112.506 137.913C113.053 137.044 113.452 136.469 113.704 136.189C115.609 134.819 116.813 133.928 117.316 133.515C116.831 132.054 116.5 131.205 116.323 130.968C116.441 130.88 116.281 129.876 115.841 127.957C115.826 127.765 115.576 127.381 115.09 126.805L114.958 126.406C114.679 125.122 114.282 124 113.767 123.04C113.752 122.996 113.584 122.191 113.262 120.626C113.395 120.287 113.16 119.578 112.556 118.5C112.454 117.6 112.389 116.884 112.36 116.353L112.118 115.401C112.03 115.135 111.898 114.293 111.723 112.877L111.503 112.212L111.46 111.637C111.17 108.094 110.908 105.526 110.674 103.932C110.349 104.138 110.142 104.256 110.054 104.285L107.971 105.345C106.435 106.346 104.827 106.462 103.145 105.692C101.538 104.553 101.09 103.276 101.801 101.86C102.274 101.064 103.161 100.328 104.46 99.6506C105.524 98.8553 106.204 98.3103 106.499 98.0156C106.942 97.8686 107.821 97.0362 109.137 95.5181C110.702 94.753 111.618 94.3264 111.884 94.2383L114.874 92.8038C115.258 92.6273 115.804 92.4953 116.513 92.4078C117.207 92.276 117.649 92.2767 117.841 92.4098C118.461 92.3516 119.258 92.3823 120.232 92.5018L122.311 93.4346C123.225 94.1148 123.866 94.6396 124.235 95.0091ZM129.777 98.8494C129.251 95.3364 129.166 93.2259 129.521 92.5181C129.506 92.4738 129.521 92.2967 129.566 91.9869C129.745 90.8951 129.856 90.3419 129.9 90.3272C129.945 90.3125 130.159 89.9955 130.544 89.3763C130.766 88.7126 131.121 88.2261 131.608 87.9169C133.026 87.2992 133.772 87.0273 133.845 87.1012C133.904 87.1308 134.31 87.0207 135.063 86.7709C135.743 86.4473 136.23 86.2857 136.525 86.2861C136.82 86.2865 137.167 86.2944 137.565 86.3098C137.993 86.2661 138.503 86.2447 139.093 86.2456C139.683 86.2465 140.126 86.3209 140.421 86.4689C140.701 86.5726 141.106 87.1266 141.636 88.1309C142.21 89.1205 142.622 89.6966 142.873 89.8593C143.285 90.8044 143.535 91.336 143.623 91.4542C143.711 91.5724 143.837 91.8013 143.998 92.141C144.366 92.9532 144.866 94.0902 145.499 95.5522C147.323 99.2737 148.382 101.577 148.676 102.463C149.207 102.73 149.575 103.099 149.781 103.572C150.237 104.502 150.907 105.927 151.789 107.847C151.834 107.832 152.209 108.445 152.915 109.686C153.607 110.882 153.997 111.613 154.085 111.879C154.292 111.909 154.52 112.153 154.771 112.611C155.375 113.246 155.692 113.239 155.722 112.59C155.664 111.97 155.556 110.236 155.398 107.387C155.045 106.324 154.98 105.756 155.201 105.683C155.334 105.639 155.268 105.365 155.003 104.863C154.827 104.037 154.784 103.166 154.874 102.251C155.009 100.731 155.034 99.2482 154.947 97.8018C154.8 97.5064 154.712 97.1669 154.683 96.7832C154.744 95.337 154.658 94.1121 154.423 93.1082C154.217 92.6357 154.114 92.178 154.115 91.7353C154.101 91.2483 154.072 90.9384 154.028 90.8055L153.677 88.6356C153.486 88.0598 153.318 87.1815 153.172 86.0007C153.011 84.7756 152.99 83.9713 153.109 83.5878C153.051 83.1155 152.97 82.7243 152.867 82.4142C153 82.075 153.089 81.7505 153.134 81.4407C153.223 81.1161 153.32 80.8137 153.423 80.5335C153.322 79.4856 154.259 78.9778 156.237 79.0103C157.004 79.0999 157.498 79.1818 157.72 79.256C157.941 79.3301 158.199 79.5149 158.493 79.8105C159.275 80.2396 159.724 80.7051 159.842 81.207C159.665 81.1182 159.657 81.2437 159.819 81.5833C159.848 81.6719 159.907 81.7753 159.996 81.8935C160.173 81.8347 160.335 82.1006 160.481 82.6911C160.613 83.2373 160.657 83.6653 160.612 83.9752C160.612 84.2703 160.641 84.6541 160.699 85.1264C160.729 85.215 160.758 85.5987 160.786 86.2776C160.8 86.9122 160.91 87.5395 161.115 88.1596C161.306 88.7354 161.4 90.2777 161.396 92.7865C161.248 93.0814 161.254 93.989 161.414 95.5092C161.619 97.0148 161.684 97.9519 161.61 98.3208C161.831 98.5424 161.793 99.0958 161.496 99.9808C161.761 100.483 161.842 100.874 161.738 101.154C161.62 101.39 161.597 101.767 161.67 102.283C161.787 102.785 161.883 103.073 161.957 103.147C162.075 103.206 162.177 103.664 162.264 104.52C162.396 105.361 162.447 105.885 162.417 106.092C162.314 106.224 162.313 106.446 162.416 106.756C162.519 107.066 162.636 107.863 162.767 109.147C162.883 110.387 162.904 111.117 162.83 111.339C162.992 111.531 163.087 112.335 163.114 113.752C163.127 115.124 163.148 116.076 163.176 116.607C163.41 118.202 163.505 119.227 163.46 119.685C163.444 120.083 163.252 120.393 162.883 120.614C162.839 120.481 162.499 120.495 161.864 120.656C161.274 120.803 160.831 120.95 160.536 121.097C160.27 121.185 159.975 121.259 159.65 121.317C159.369 121.361 159.067 121.412 158.742 121.471C158.403 121.485 158.085 121.492 157.79 121.491C157.539 121.476 157.318 121.476 157.126 121.491C156.964 121.446 156.897 121.394 156.927 121.335L156.02 121.268C156.093 121.489 155.502 121.709 154.248 121.929C153.672 122.12 153.111 121.986 152.566 121.528C152.271 121.38 152.028 121.092 151.837 120.664C151.6 120.84 150.93 120.227 149.825 118.823C148.706 117.376 147.866 116.179 147.307 115.234C146.777 114.229 146.335 113.491 145.982 113.018C145.673 112.531 145.275 111.777 144.79 110.759C144.349 109.725 144.01 109.149 143.774 109.03C143.804 108.824 143.738 108.551 143.576 108.211C143.414 107.871 142.34 105.745 140.354 101.831C140.075 100.99 139.913 100.576 139.869 100.591C139.603 100.679 139.382 100.457 139.206 99.9258L138.853 99.0841C138.823 99.4382 138.895 100.029 139.071 100.855C139.321 101.903 139.489 103.003 139.576 104.154C139.648 105.261 139.758 105.815 139.905 105.815L140.961 110.554C141.284 111.528 141.408 112.347 141.333 113.011C141.378 112.997 141.407 113.011 141.422 113.056C141.495 113.277 141.554 113.602 141.598 114.03C141.686 114.443 142.016 115.587 142.589 117.462C143.147 119.293 143.602 120.888 143.954 122.246C144.306 123.604 144.541 124.387 144.659 124.593C144.762 124.756 144.769 125.073 144.68 125.545C144.827 125.988 144.7 126.423 144.301 126.851C143.828 127.647 143.075 127.897 142.042 127.6C141.216 127.628 140.692 127.679 140.471 127.753C140.293 127.811 140.102 127.826 139.895 127.796C139.629 127.884 139.267 127.98 138.81 128.082C138.839 128.171 138.603 128.126 138.102 127.948C138.013 127.978 137.903 127.793 137.77 127.394C137.624 126.951 137.462 126.759 137.284 126.818C137.151 126.862 137.085 126.958 137.085 127.106L136.842 126.375C136.961 126.139 136.873 125.873 136.578 125.578L135.872 123.673C135.637 123.407 135.394 122.897 135.144 122.144C134.894 121.391 134.799 120.956 134.858 120.838L134.528 119.841C134.572 119.531 134.294 118.468 133.691 116.652C133.147 115.456 132.883 114.216 132.9 112.932C132.826 112.859 132.716 112.305 132.57 111.272C132.349 111.05 132.151 110.452 131.975 109.478L131.403 107.308L130.986 104.939C130.868 104.584 130.736 104.038 130.59 103.3C130.562 101.883 130.291 100.4 129.777 98.8494Z" fill="#FFFEFA"/>
<g filter="url(#filter0_d_1192_2)">
<path d="M151.453 133.694L257.602 154.709L270.24 153.437L265.333 172.826L255.039 165.052L151.453 133.694Z" fill="#FFE4DC"/>
</g>
<g filter="url(#filter1_d_1192_2)">
<circle cx="268" cy="163" r="15" fill="#088359"/>
<path d="M279.275 156.717C280.177 158.623 280.051 160.573 278.995 161.073C277.938 161.573 278.901 159.226 277.999 157.321C277.098 155.416 274.672 154.673 275.729 154.173C276.785 153.673 278.373 154.812 279.275 156.717Z" fill="#FFFEFA"/>
<circle cx="279" cy="164" r="1" fill="#FFFEFA"/>
</g>
<defs>
<filter id="filter0_d_1192_2" x="147.453" y="133.694" width="126.786" height="47.1313" filterUnits="userSpaceOnUse" color-interpolation-filters="sRGB">
<feFlood flood-opacity="0" result="BackgroundImageFix"/>
<feColorMatrix in="SourceAlpha" type="matrix" values="0 0 0 0 0 0 0 0 0 0 0 0 0 0 0 0 0 0 127 0" result="hardAlpha"/>
<feOffset dy="4"/>
<feGaussianBlur stdDeviation="2"/>
<feComposite in2="hardAlpha" operator="out"/>
<feColorMatrix type="matrix" values="0 0 0 0 0.553158 0 0 0 0 0.414406 0 0 0 0 0.37059 0 0 0 1 0"/>
<feBlend mode="normal" in2="BackgroundImageFix" result="effect1_dropShadow_1192_2"/>
<feBlend mode="normal" in="SourceGraphic" in2="effect1_dropShadow_1192_2" result="shape"/>
</filter>
<filter id="filter1_d_1192_2" x="249" y="148" width="38" height="38" filterUnits="userSpaceOnUse" color-interpolation-filters="sRGB">
<feFlood flood-opacity="0" result="BackgroundImageFix"/>
<feColorMatrix in="SourceAlpha" type="matrix" values="0 0 0 0 0 0 0 0 0 0 0 0 0 0 0 0 0 0 127 0" result="hardAlpha"/>
<feOffset dy="4"/>
<feGaussianBlur stdDeviation="2"/>
<feComposite in2="hardAlpha" operator="out"/>
<feColorMatrix type="matrix" values="0 0 0 0 0.553158 0 0 0 0 0.414406 0 0 0 0 0.37059 0 0 0 1 0"/>
<feBlend mode="normal" in2="BackgroundImageFix" result="effect1_dropShadow_1192_2"/>
<feBlend mode="normal" in="SourceGraphic" in2="effect1_dropShadow_1192_2" result="shape"/>
</filter>
</defs>
</svg>
