<svg width="30" height="30" viewBox="0 0 30 30" fill="none" xmlns="http://www.w3.org/2000/svg">
<circle cx="15" cy="15" r="15" fill="#FEB69F"/>
<path d="M22 13.2679C23.3333 14.0377 23.3333 15.9623 22 16.7321L13 21.9282C11.6667 22.698 10 21.7358 10 20.1962L10 9.80385C10 8.26425 11.6667 7.302 13 8.0718L22 13.2679Z" fill="#FFFEFA"/>
<circle cx="15" cy="15" r="15" fill="#FEB69F"/>
<path d="M25.4807 7.29817C24.6101 5.74476 13.4578 18.3237 12.2722 18.3739C11.0867 18.4242 3.75055 11.5584 3.67515 13.3101C3.59975 15.0617 10.9289 23.4933 12.6065 23.4719C14.2841 23.4504 26.3514 8.85158 25.4807 7.29817Z" fill="#FFFEFA"/>
</svg>
