<svg width="134" height="287" viewBox="0 0 134 287" fill="none" xmlns="http://www.w3.org/2000/svg">
<path d="M94.048 40.304L94.192 40.048C94.64 40.112 95.056 40.192 95.344 40.336C95.92 40.672 96.32 41.28 96.32 41.616C96.32 41.936 95.92 42.064 95.28 42.304C94.272 42.64 92.496 43.472 91.392 44.112C90.112 44.864 88.352 46.192 88.352 47.696C88.352 48.624 89.248 49.376 91.744 49.376C94 49.376 95.2 48.944 95.664 48.944C96.24 48.944 96.736 49.072 96.736 49.552C96.736 49.776 96.48 49.968 96.144 50.048C95.568 50.224 94.24 50.432 92.08 50.432C89.28 50.432 87.584 49.536 87.584 47.856C87.584 45.856 89.888 44.16 90.816 43.552C91.984 42.8 93.984 41.776 94.656 41.408C94.928 41.296 94.976 41.168 94.88 40.96C94.752 40.672 94.4 40.48 94.048 40.304ZM87.504 37.984C87.936 37.856 88.208 37.808 88.528 37.808C89.264 37.808 90.096 38.32 90.112 38.704C90.128 38.976 89.984 39.152 90 39.536C90.016 40.144 90.144 41.312 90.352 41.952C90.544 42.592 90.864 43.088 91.456 43.408L90.704 43.904C90.128 43.568 89.76 42.976 89.552 42.384C89.264 41.552 89.024 40.208 88.864 39.056C88.816 38.784 88.736 38.624 88.416 38.512C88.144 38.416 87.76 38.352 87.52 38.304L87.504 37.984ZM92.16 60.552L92.352 60.264C92.72 60.344 93.024 60.408 93.328 60.584C93.888 60.904 94.48 61.56 94.48 61.96C94.48 62.28 94.208 62.408 93.664 62.824C92.592 63.704 90.464 65.64 89.808 66.312C89.344 66.792 89.248 66.968 89.248 67.144C89.248 67.368 89.424 67.56 89.776 67.848C91.44 69.16 92.832 70.184 93.968 71.64C94.4 72.2 94.752 72.824 94.752 73.288C94.752 73.72 94.544 73.992 94.144 73.992C93.888 73.992 93.68 73.816 93.568 73.592C93.408 73.272 93.248 72.872 92.816 72.216C92.064 71.064 90.896 69.928 88.96 68.28C88.56 67.928 88.336 67.592 88.336 67.24C88.336 66.968 88.512 66.68 88.752 66.408C89.568 65.448 91.92 63.16 92.656 62.264C92.928 61.928 93.024 61.784 93.024 61.592C93.024 61.32 92.816 61 92.16 60.552ZM95.584 87.904C95.2 87.408 94.768 86.944 93.968 86.368L94.176 86.096C95.072 86.416 95.712 86.848 96.128 87.2C96.576 87.584 96.816 87.968 96.784 88.304C96.768 88.56 96.624 88.688 96.4 88.688C96.128 88.688 95.936 88.352 95.584 87.904ZM97.152 86.544C96.768 86.064 96.224 85.536 95.44 85.04L95.648 84.768C96.576 85.056 97.216 85.44 97.616 85.76C98.096 86.144 98.352 86.544 98.352 86.912C98.352 87.152 98.208 87.312 97.968 87.312C97.712 87.312 97.536 86.992 97.152 86.544ZM84.672 90.416L84.944 90.192C85.312 90.528 85.696 90.784 85.968 90.784C86.192 90.784 86.448 90.624 86.752 90.352C87.488 89.664 88.8 88.176 89.408 87.52C89.744 87.152 90.064 86.944 90.464 86.944C90.88 86.944 91.328 87.072 91.824 87.568C93.552 89.232 95.168 91.712 98.384 93.44C98.8 93.68 99.024 94.032 99.024 94.416C99.024 94.72 98.848 94.928 98.496 94.928C97.904 94.928 96.544 93.936 95.184 92.592C93.808 91.248 92.544 89.52 91.28 88.192C90.976 87.888 90.704 87.776 90.48 87.776C90.288 87.776 90.096 87.92 89.84 88.208C89.28 88.864 88.128 90.4 87.536 91.184C87.136 91.696 86.896 92.048 86.448 92.048C86.016 92.048 85.392 91.632 85.04 91.248C84.864 91.04 84.768 90.72 84.672 90.416ZM85.216 111.176C85.552 111.56 85.952 111.8 86.288 111.8C86.592 111.8 86.848 111.752 87.696 111.304C89.216 110.536 91.68 109.128 94.064 109.128C96.976 109.128 98.48 110.952 98.48 112.936C98.48 115 97.232 116.36 95.488 117.176C94.064 117.848 91.76 118.2 89.28 118.088L89.232 117.656C91.376 117.512 93.088 117.272 94.704 116.488C96.496 115.64 97.36 114.456 97.36 112.744C97.36 110.952 96.096 109.784 94.048 109.784C92.096 109.784 89.92 111.208 88.736 111.96C87.552 112.712 87.12 113.16 86.656 113.16C86.16 113.16 85.488 112.632 85.248 112.232C85.088 111.96 85.04 111.656 84.976 111.336L85.216 111.176ZM94.304 132.736V132.352C95.088 132.224 95.904 132.288 96.528 132.528C97.488 132.896 97.984 133.536 97.984 134.176C97.984 134.528 97.84 134.752 97.536 134.752C97.152 134.752 96.88 134.48 96.192 134.528C95.648 134.592 95.072 134.8 94.72 135.152C94.368 135.52 94.288 136.016 94.32 136.608C94.352 137.36 94.752 139.536 94.752 140.608C94.752 141.936 93.776 142.72 92.144 142.72C90.48 142.72 89.584 141.888 89.584 140.96C89.584 139.744 90.88 138.864 92.992 138.864C94.8 138.864 96.224 139.536 97.104 140.16C97.888 140.656 98.224 141.104 98.224 141.504C98.224 141.824 98.064 142.032 97.808 142.032C97.52 142.032 97.312 141.744 96.976 141.44C95.904 140.4 94.496 139.6 92.416 139.6C90.96 139.6 90.192 140.208 90.192 140.768C90.192 141.328 90.72 141.776 91.888 141.776C93.424 141.776 93.776 141.008 93.776 140.064C93.792 139.008 93.6 137.808 93.6 136.848C93.6 135.936 93.84 135.344 94.352 134.832C94.864 134.32 95.584 134.048 96.144 133.808C96.464 133.648 96.416 133.44 96.128 133.216C95.68 132.88 95.04 132.736 94.304 132.736ZM85.888 131.648C86.56 132.24 86.928 132.576 88.016 132.576C88.752 132.576 89.52 132.4 89.936 132.272C91.792 131.744 92.144 131.296 92.464 131.296C92.816 131.296 93.056 131.52 93.056 131.792C93.056 132.064 92.704 132.288 92.512 132.384C91.68 132.816 89.584 133.456 87.856 133.456C86.656 133.456 86.112 133.008 85.6 131.872L85.888 131.648ZM88.576 129.856V129.6C88.848 129.488 89.232 129.392 89.536 129.392C89.936 129.392 90.416 129.504 90.688 129.664C90.976 129.856 90.88 130.16 90.176 132.608C89.728 134.16 88.448 137.616 86.976 139.776C86.736 140.112 86.544 140.352 86.256 140.352C85.936 140.352 85.792 140.032 85.792 139.744C85.792 139.472 85.856 139.248 86.064 138.976C87.104 137.6 88.528 135.488 89.232 132.992C89.44 132.24 89.648 131.216 89.664 130.672C89.68 130.336 89.616 130.208 89.344 130.096C89.104 129.984 88.8 129.904 88.576 129.856ZM87.808 158.6H96.272V159.08H87.808V158.6ZM87.808 164.248H96.272V164.712H87.808V164.248ZM95.744 153.176H95.584L96.192 152.488L97.52 153.528C97.408 153.672 97.152 153.8 96.832 153.864V165.64C96.816 165.752 96.304 166.04 95.904 166.04H95.744V153.176ZM87.216 153.176V152.632L88.384 153.176H96.288V153.656H88.272V165.704C88.272 165.848 87.888 166.136 87.424 166.136H87.216V153.176ZM86.656 177.152C87.296 177.824 87.584 178.16 88.768 178.16C90.208 178.144 92.24 177.504 93.232 177.072C93.904 176.784 94.032 176.64 94.272 176.64C94.608 176.64 94.96 176.752 94.96 177.072C94.96 177.28 94.8 177.408 94.512 177.552C93.552 178.032 90.656 178.96 88.56 178.96C87.232 178.96 86.976 178.608 86.336 177.344L86.656 177.152ZM92.88 185.808C92.88 186.192 92.704 186.416 92.384 186.416C92.112 186.416 91.84 186.256 91.84 185.808C91.84 185.344 91.952 184.112 91.92 183.072C91.872 181.616 91.584 181.072 90.704 181.072C89.824 181.072 88.768 181.968 88.096 182.688C87.52 183.28 87.072 184.048 86.688 184.048C86.384 184.064 86.16 183.808 86.16 183.424C86.16 182.976 86.736 182.576 87.472 181.824C89.024 180.272 90.416 177.936 90.72 176.592C90.784 176.304 90.736 176.176 90.432 176.048C90.24 175.968 89.904 175.872 89.536 175.824V175.52C89.84 175.44 90.192 175.344 90.432 175.36C90.928 175.36 91.984 175.648 91.984 176.032C91.984 176.256 91.84 176.352 91.68 176.72C91.52 177.056 91.216 177.68 90.944 178.192C90.496 179.008 90.016 179.856 89.104 180.992C89.04 181.088 89.088 181.168 89.216 181.104C89.712 180.832 90.32 180.544 90.976 180.544C92.032 180.544 92.672 181.328 92.784 182.672C92.88 183.616 92.88 185.168 92.88 185.808ZM96.128 179.2C96.704 179.312 97.024 179.408 97.312 179.616C97.712 179.888 98.16 180.432 98.16 180.864C98.16 181.168 98.016 181.2 97.376 181.392C95.984 181.824 93.712 182.688 92.208 183.536C90.528 184.48 89.248 185.552 89.248 186.544C89.248 187.44 90.272 187.84 91.808 187.84C94.16 187.84 95.104 187.328 95.856 187.328C96.432 187.328 96.704 187.52 96.704 187.824C96.704 188.08 96.64 188.272 96.112 188.416C95.6 188.56 93.904 188.848 92.528 188.848C89.568 188.848 88.592 187.92 88.592 186.672C88.592 185.312 90.24 183.952 92.256 182.72C93.6 181.92 95.536 181.136 96.64 180.56C96.896 180.432 96.928 180.272 96.72 180.016C96.56 179.824 96.24 179.632 95.936 179.472L96.128 179.2Z" fill="#644C44"/>
<path d="M40.048 68.904L40.064 68.552C40.336 68.504 40.624 68.472 40.944 68.472C41.68 68.472 42.64 69.256 42.64 69.688C42.64 69.992 42.416 70.104 42.224 70.488C41.984 71 41.76 71.624 41.408 72.76C40.992 74.072 40.176 77.048 40.176 78.504C40.176 80.12 41.232 80.84 42.72 80.84C44.832 80.84 45.856 79.464 45.856 78.136C45.856 76.376 44.768 75.352 43.296 74.248L43.52 73.992C46 75.224 46.912 76.696 46.912 78.44C46.912 79.976 45.6 81.768 42.816 81.768C40.656 81.768 39.488 80.472 39.488 78.52C39.488 76.888 40.16 73.96 40.512 72.648C40.848 71.416 41.216 70.264 41.264 69.768C41.28 69.384 41.184 69.272 40.88 69.144C40.64 69.032 40.288 68.952 40.048 68.904ZM37.408 70.408C37.824 70.984 38.224 71.464 38.88 71.736C40.08 72.232 41.232 72.136 42.192 72.216C42.688 72.264 42.896 72.536 42.896 72.824C42.896 73.08 42.688 73.208 42.288 73.224C41.904 73.256 40.976 73.16 40.512 73.16C39.44 73.16 37.872 74.136 37.872 74.952C37.872 75.448 38.272 75.944 39.92 76.152C41.008 76.28 41.888 76.2 42.304 76.248C42.672 76.28 42.928 76.44 42.928 76.76C42.928 77.048 42.752 77.208 42.144 77.272C41.664 77.32 40.784 77.304 39.792 77.128C38.176 76.84 37.232 76.072 37.232 75.112C37.232 74.248 38.208 73.304 39.424 72.712C39.008 72.584 38.656 72.456 38.24 72.2C37.664 71.816 37.36 71.352 37.136 70.584L37.408 70.408ZM36.848 98.416C37.072 98.672 37.36 98.88 37.648 98.88C37.872 98.88 38.064 98.832 38.608 98.56C39.856 97.952 41.712 96.848 43.584 96.848C45.792 96.848 46.992 98.272 46.992 99.792C46.992 101.408 46.048 102.416 44.768 103.024C43.616 103.6 41.744 103.84 39.872 103.744L39.856 103.424C43.056 103.2 45.952 102.208 45.952 99.632C45.952 98.336 45.056 97.424 43.568 97.424C42.048 97.424 40.4 98.688 39.552 99.232C38.704 99.808 38.384 100.08 38.016 100.08C37.584 100.08 37.024 99.632 36.832 99.264C36.704 99.024 36.688 98.768 36.656 98.512L36.848 98.416ZM44.048 117.304L44.192 117.048C44.64 117.112 45.056 117.192 45.344 117.336C45.92 117.672 46.32 118.28 46.32 118.616C46.32 118.936 45.92 119.064 45.28 119.304C44.272 119.64 42.496 120.472 41.392 121.112C40.112 121.864 38.352 123.192 38.352 124.696C38.352 125.624 39.248 126.376 41.744 126.376C44 126.376 45.2 125.944 45.664 125.944C46.24 125.944 46.736 126.072 46.736 126.552C46.736 126.776 46.48 126.968 46.144 127.048C45.568 127.224 44.24 127.432 42.08 127.432C39.28 127.432 37.584 126.536 37.584 124.856C37.584 122.856 39.888 121.16 40.816 120.552C41.984 119.8 43.984 118.776 44.656 118.408C44.928 118.296 44.976 118.168 44.88 117.96C44.752 117.672 44.4 117.48 44.048 117.304ZM37.504 114.984C37.936 114.856 38.208 114.808 38.528 114.808C39.264 114.808 40.096 115.32 40.112 115.704C40.128 115.976 39.984 116.152 40 116.536C40.016 117.144 40.144 118.312 40.352 118.952C40.544 119.592 40.864 120.088 41.456 120.408L40.704 120.904C40.128 120.568 39.76 119.976 39.552 119.384C39.264 118.552 39.024 117.208 38.864 116.056C38.816 115.784 38.736 115.624 38.416 115.512C38.144 115.416 37.76 115.352 37.52 115.304L37.504 114.984ZM38.704 137.984L38.72 137.616C39.072 137.552 39.344 137.488 39.744 137.52C40.304 137.552 41.328 137.92 41.328 138.288C41.328 138.576 41.12 138.96 40.928 139.584C40.672 140.544 40.128 142.512 39.536 144.112C38.784 146.272 37.776 148.864 37.088 149.984C36.864 150.336 36.704 150.496 36.368 150.496C36.112 150.496 35.904 150.192 35.904 149.84C35.904 149.488 36.064 149.328 36.304 148.912C37.104 147.68 38 146.08 38.8 143.84C39.376 142.224 39.936 139.984 40.048 138.896C40.08 138.544 40 138.416 39.696 138.272C39.392 138.144 39.024 138.064 38.704 137.984ZM35.616 140.336C36.304 140.928 36.784 141.232 37.552 141.232C38.512 141.248 39.456 141.04 40.128 140.848C41.216 140.544 42.032 140.176 42.624 139.856C42.864 139.728 43.04 139.648 43.168 139.648C43.456 139.648 43.872 139.792 43.872 140.096C43.872 140.384 43.68 140.544 43.088 140.8C42.688 140.992 41.168 141.536 39.92 141.808C39.264 141.952 38.336 142.112 37.568 142.112C36.624 142.112 35.872 141.76 35.344 140.528L35.616 140.336ZM42.56 143.2L42.448 142.832C43.216 142.512 44.288 142.24 45.344 142.24C46.416 142.24 47.136 142.448 47.52 142.64C47.888 142.816 48.096 143.072 48.096 143.328C48.096 143.632 47.824 143.696 47.44 143.728C47.136 143.76 46.896 143.808 46.48 144C46 144.176 45.248 144.56 44.688 144.816L44.496 144.528C45.04 144.176 45.968 143.568 46.176 143.376C46.304 143.264 46.24 143.184 46.112 143.136C45.712 142.992 45.168 142.944 44.688 142.944C43.984 142.944 43.248 143.056 42.56 143.2ZM41.552 146.56L41.152 146.608C41.184 147.168 41.248 147.776 41.504 148.4C42.016 149.808 43.472 150.368 45.328 150.368C46.272 150.368 46.992 150.256 47.472 150.16C47.936 150.064 48.368 149.888 48.368 149.568C48.368 149.184 47.952 149.024 47.568 149.024C47.12 149.024 46.608 149.328 44.992 149.328C43.616 149.328 42.64 148.96 42.096 148.096C41.776 147.6 41.632 147.024 41.552 146.56ZM41.728 162.296C42.16 162.84 42.56 163.464 42.56 164.168C42.56 164.92 42.368 165.816 42.048 166.744C41.392 168.648 39.52 171.752 37.888 171.752C36.816 171.752 35.712 170.072 35.712 168.088C35.712 166.472 36.464 164.808 37.84 163.592C39.152 162.44 40.8 161.896 42.512 161.896C45.792 161.896 48.336 164.04 48.336 167.352C48.336 170.008 46.672 172.728 41.44 173.08L41.376 172.712C45.296 172.008 47.184 170.008 47.184 167.096C47.184 164.264 45.088 162.424 42.432 162.424C40.928 162.424 39.36 163.048 38.256 164.136C37.232 165.144 36.608 166.44 36.608 167.832C36.608 169.384 37.312 170.536 37.952 170.536C39.024 170.536 40.496 168.024 41.152 166.488C41.456 165.72 41.712 164.76 41.712 164.024C41.712 163.384 41.488 162.936 41.184 162.408L41.728 162.296ZM37.44 184.432V184.096C37.872 184.016 38.192 183.968 38.48 183.984C39.248 184.016 40.336 184.848 40.336 185.296C40.336 185.632 40.032 185.728 39.904 186.48C39.648 188 39.36 190.592 39.36 192.768C39.36 194.784 39.968 195.552 41.728 195.552C44.464 195.552 46.704 193.84 47.776 192.144L48.128 192.384C46.96 194.896 44.56 196.64 41.728 196.64C39.568 196.64 38.464 195.6 38.464 192.848C38.464 190.368 38.848 186.608 38.848 185.696C38.848 185.104 38.768 184.928 38.48 184.784C38.24 184.64 37.856 184.512 37.44 184.432ZM42.16 206.552L42.352 206.264C42.72 206.344 43.024 206.408 43.328 206.584C43.888 206.904 44.48 207.56 44.48 207.96C44.48 208.28 44.208 208.408 43.664 208.824C42.592 209.704 40.464 211.64 39.808 212.312C39.344 212.792 39.248 212.968 39.248 213.144C39.248 213.368 39.424 213.56 39.776 213.848C41.44 215.16 42.832 216.184 43.968 217.64C44.4 218.2 44.752 218.824 44.752 219.288C44.752 219.72 44.544 219.992 44.144 219.992C43.888 219.992 43.68 219.816 43.568 219.592C43.408 219.272 43.248 218.872 42.816 218.216C42.064 217.064 40.896 215.928 38.96 214.28C38.56 213.928 38.336 213.592 38.336 213.24C38.336 212.968 38.512 212.68 38.752 212.408C39.568 211.448 41.92 209.16 42.656 208.264C42.928 207.928 43.024 207.784 43.024 207.592C43.024 207.32 42.816 207 42.16 206.552Z" fill="#644C44"/>
</svg>
