<svg width="83" height="42" viewBox="0 0 83 42" fill="none" xmlns="http://www.w3.org/2000/svg">
<circle cx="15" cy="21" r="15" fill="#FEB69F"/>
<path d="M8 19.2679C6.66667 20.0377 6.66667 21.9623 8 22.7321L17 27.9282C18.3333 28.698 20 27.7358 20 26.1962L20 15.8038C20 14.2642 18.3333 13.302 17 14.0718L8 19.2679Z" fill="#FFFEFA"/>
<path d="M39.38 27V26.58L41.438 26.412H41.788L43.86 26.58V27H39.38ZM40.962 27C40.9807 26.216 40.99 25.432 40.99 24.648C40.9993 23.864 41.004 23.0753 41.004 22.282V21.526C41.004 20.7327 40.9993 19.944 40.99 19.16C40.99 18.3667 40.9807 17.5827 40.962 16.808H42.264C42.2547 17.5827 42.2453 18.3667 42.236 19.16C42.236 19.944 42.236 20.7327 42.236 21.526V22.282C42.236 23.0753 42.236 23.864 42.236 24.648C42.2453 25.432 42.2547 26.216 42.264 27H40.962ZM37.308 19.468L37.42 16.808H45.806L45.932 19.468H45.33L44.826 16.808L45.4 17.298H37.826L38.414 16.808L37.91 19.468H37.308ZM51.4948 27.224C50.8788 27.224 50.2908 27.1073 49.7308 26.874C49.1801 26.6313 48.6948 26.2813 48.2748 25.824C47.8548 25.3667 47.5235 24.8113 47.2808 24.158C47.0381 23.4953 46.9168 22.744 46.9168 21.904C46.9168 21.0733 47.0381 20.3313 47.2808 19.678C47.5235 19.0153 47.8548 18.4553 48.2748 17.998C48.6948 17.5313 49.1801 17.1767 49.7308 16.934C50.2908 16.6913 50.8788 16.57 51.4948 16.57C52.1201 16.57 52.7081 16.6913 53.2588 16.934C53.8095 17.1673 54.2948 17.5127 54.7148 17.97C55.1441 18.4273 55.4755 18.9873 55.7088 19.65C55.9515 20.3127 56.0728 21.064 56.0728 21.904C56.0728 22.7347 55.9515 23.4813 55.7088 24.144C55.4755 24.7973 55.1441 25.3527 54.7148 25.81C54.2948 26.2673 53.8095 26.6173 53.2588 26.86C52.7081 27.1027 52.1201 27.224 51.4948 27.224ZM51.4948 26.748C52.0268 26.748 52.4935 26.622 52.8948 26.37C53.3055 26.1087 53.6461 25.7587 53.9168 25.32C54.1875 24.872 54.3928 24.3587 54.5328 23.78C54.6728 23.192 54.7428 22.5667 54.7428 21.904C54.7428 21.2507 54.6728 20.6347 54.5328 20.056C54.3928 19.468 54.1875 18.95 53.9168 18.502C53.6461 18.054 53.3055 17.704 52.8948 17.452C52.4935 17.2 52.0268 17.074 51.4948 17.074C50.9628 17.074 50.4915 17.2 50.0808 17.452C49.6795 17.704 49.3388 18.054 49.0588 18.502C48.7881 18.95 48.5828 19.468 48.4428 20.056C48.3121 20.6347 48.2468 21.2507 48.2468 21.904C48.2468 22.5667 48.3121 23.192 48.4428 23.78C48.5828 24.3587 48.7881 24.872 49.0588 25.32C49.3388 25.7587 49.6795 26.1087 50.0808 26.37C50.4915 26.622 50.9628 26.748 51.4948 26.748ZM57.3611 27V26.58L59.2931 26.412H59.6711L61.6731 26.58V27H57.3611ZM58.7891 27C58.8078 26.216 58.8171 25.432 58.8171 24.648C58.8171 23.864 58.8171 23.0753 58.8171 22.282V21.526C58.8171 20.7327 58.8171 19.944 58.8171 19.16C58.8171 18.3667 58.8078 17.5827 58.7891 16.808H60.0911C60.0818 17.5827 60.0725 18.3667 60.0631 19.16C60.0631 19.944 60.0631 20.7327 60.0631 21.526V22.506C60.0631 23.1967 60.0631 23.9247 60.0631 24.69C60.0725 25.446 60.0818 26.216 60.0911 27H58.7891ZM59.4471 22.828V22.366H60.8751C61.5845 22.366 62.1585 22.2587 62.5971 22.044C63.0451 21.82 63.3671 21.512 63.5631 21.12C63.7685 20.728 63.8711 20.2753 63.8711 19.762C63.8711 18.95 63.6565 18.334 63.2271 17.914C62.7978 17.4847 62.1305 17.27 61.2251 17.27H59.4471V16.808H61.3231C62.6018 16.808 63.5445 17.074 64.1511 17.606C64.7671 18.138 65.0751 18.8613 65.0751 19.776C65.0751 20.3453 64.9305 20.8633 64.6411 21.33C64.3611 21.7873 63.9131 22.1513 63.2971 22.422C62.6811 22.6927 61.8831 22.828 60.9031 22.828H59.4471ZM57.3611 17.228V16.808H59.4471V17.382H59.2931L57.3611 17.228Z" fill="#8D6A5F"/>
</svg>
